# xmcd
#
# Track frame offsets:
#	150
#	17060
#	30105
#	44438
#	58475
#	78372
#	90562
#	102149
#	120671
#	134201
#	149986
#	169488
#	189598
#	213703
#	234594
#	253819
#	266597
#	284239
#	301199
#	325447
#
# Disc length: 4605
#
# Revision: 1
# Processed by: cddbd v1.5.1PL0 Copyright (c) Steve Scherf et al.
# Submitted via: CDex 1.50beta8
# Normalized: r0:TDELIM( - )
#
DISCID=3d11fb14
DTITLE=Various Artist - 100% HITS The Blues Hits vol.3
DYEAR=2002
DGENRE=Blues
TTITLE0=Robert Cray - Who`s Been Talkin`
TTITLE1=Muddy Waters - Mannish Boy
TTITLE2=Sam Lay - Somebody Gotta Do It
TTITLE3=Eric Clapton and John Mayall - Ramblin` on My Mind
TTITLE4=Maria Muldaur - Mistery and The Blues
TTITLE5=John Lee Hooker - I`m in The Mood
TTITLE6=Etta James - I`d Rather Go Blind
TTITLE7=Muskee - Brother Booze
TTITLE8=Lightnin` Hopkins - Lovin` Arms
TTITLE9=Screamin` Joe Hopkins - I Put a Spell on You
TTITLE10=Debbie Davies and Albert Collins - I Wonder Why
TTITLE11=B.B. King - Sweet Sixteen
TTITLE12=Sugar Ray Norcia, Charlie Musselwhite - Life Will Be Better
TTITLE13=Big Bill Morganfield and Taj Mahal - Strong Man Holler
TTITLE14=Snooky Pryor - Work with Me Annie
TTITLE15=James Cotton - My Babe
TTITLE16=Junior Wells - Why are People Like That
TTITLE17=Coco Montoya - Enough is Enough
TTITLE18=Son Seals - Love Had a Breakdown
TTITLE19=Michael Burks - Got a Way with Women
EXTD=YEAR: 2002
EXTT0=
EXTT1=
EXTT2=
EXTT3=
EXTT4=
EXTT5=
EXTT6=
EXTT7=
EXTT8=
EXTT9=
EXTT10=
EXTT11=
EXTT12=
EXTT13=
EXTT14=
EXTT15=
EXTT16=
EXTT17=
EXTT18=
EXTT19=
PLAYORDER=
